<svg xmlns="http://www.w3.org/2000/svg" width="128" height="128" viewBox="0 0 20 20"><g fill="none"><path fill="url(#IconifyId19753a855d689a7573)" d="M8.681 2.785c.568-1.047 2.071-1.047 2.638 0l6.5 12.002A1.5 1.5 0 0 1 16.502 17H3.498a1.5 1.5 0 0 1-1.319-2.215z"/><path fill="url(#IconifyId19753a855d689a7574)" d="M10.5 7.5a.5.5 0 0 0-1 0v4a.5.5 0 0 0 1 0z"/><path fill="url(#IconifyId19753a855d689a7575)" d="M10 14.5a.75.75 0 1 0 0-1.5a.75.75 0 0 0 0 1.5"/><defs><linearGradient id="IconifyId19753a855d689a7573" x1="4.497" x2="13.972" y1="-.344" y2="18.914" gradientUnits="userSpaceOnUse"><stop stop-color="#FFCD0F"/><stop offset="1" stop-color="#FE8401"/></linearGradient><linearGradient id="IconifyId19753a855d689a7574" x1="8" x2="11.603" y1="7" y2="14.686" gradientUnits="userSpaceOnUse"><stop stop-color="#4A4A4A"/><stop offset="1" stop-color="#212121"/></linearGradient><linearGradient id="IconifyId19753a855d689a7575" x1="8" x2="11.603" y1="7" y2="14.686" gradientUnits="userSpaceOnUse"><stop stop-color="#4A4A4A"/><stop offset="1" stop-color="#242424"/></linearGradient></defs></g></svg>